<?xml version="1.0" encoding="UTF-8" standalone="no"?>
<!-- Created with Inkscape (http://www.inkscape.org/) -->

<svg
   width="600"
   height="372"
   viewBox="0 0 158.75 98.424999"
   version="1.1"
   id="svg1"
   xml:space="preserve"
   xmlns="http://www.w3.org/2000/svg"
   xmlns:svg="http://www.w3.org/2000/svg"><defs
     id="defs1"><style
       id="style1">.cls-1{fill:#fff;}</style></defs><rect
     style="fill:#333333;fill-opacity:1;stroke-width:0.834508"
     id="rect1"
     width="158.75"
     height="98.425003"
     x="-1.0658141e-14"
     y="-1.5258789e-06" /><g
     id="layer1"><path
       class="cls-1"
       d="m 35.237021,63.639231 h -6.512946 a 2.4898542,2.4898542 0 0 1 -2.401586,-2.401587 v -6.512798 a 4.4215813,4.4215813 0 0 0 2.619762,-1.23711 3.51721,3.51721 0 0 0 0,-5.093929 4.4217267,4.4217267 0 0 0 -2.619762,-1.237107 v -6.512947 a 2.4898542,2.4898542 0 0 1 2.401586,-2.401586 h 6.258262 a 5.5585097,5.5585097 0 0 1 1.54636,-2.474214 3.8401169,3.8401169 0 0 1 5.130341,0 5.5585097,5.5585097 0 0 1 1.546357,2.474214 h 6.11286 a 2.4898542,2.4898542 0 0 1 2.401584,2.401586 v 6.112714 a 4.9624225,4.9624225 0 0 1 2.419605,1.619135 4.0732062,4.0732062 0 0 1 0.927553,2.638065 3.5909522,3.5909522 0 0 1 -0.927846,2.510576 5.4012931,5.4012931 0 0 1 -2.419592,1.491794 v 6.22185 a 2.4898542,2.4898542 0 0 1 -2.401595,2.401586 h -6.512799 a 4.3124449,4.3124449 0 0 0 -1.255314,-2.747105 3.6017496,3.6017496 0 0 0 -5.057516,0 4.3124449,4.3124449 0 0 0 -1.255314,2.746863 z M 28.79685,61.165017 h 4.657333 a 5.6848835,5.6848835 0 0 1 2.510578,-2.983585 6.6072668,6.6072668 0 0 1 3.056356,-0.836874 6.6072668,6.6072668 0 0 1 3.056355,0.836874 5.6851257,5.6851257 0 0 1 2.510581,2.983585 h 4.657281 v -8.477744 h 1.673764 a 1.6740896,1.6740896 0 1 0 0,-3.347453 H 49.245334 V 40.716381 H 40.767447 V 38.93364 a 1.6740896,1.6740896 0 1 0 -3.347452,0 v 1.782886 h -8.623437 v 4.657335 a 6.023914,6.023914 0 0 1 2.692487,8.91434 5.8635499,5.8635499 0 0 1 -2.692487,2.21953 z"
       id="path1"
       style="stroke-width:0.48419" /><path
       style="font-size:8.58081px;font-family:'HarmonyOS Sans';-inkscape-font-specification:'HarmonyOS Sans';text-align:center;text-anchor:middle;fill:#ffffff;stroke-width:0.071506"
       d="m 40.864308,10.954069 q 0.634979,0 1.132666,0.248844 0.506268,0.248843 0.789435,0.695045 0.283167,0.437622 0.283167,1.003955 0,0.566333 -0.283167,1.012536 -0.274586,0.437621 -0.780854,0.686464 -0.497687,0.240263 -1.141247,0.240263 h -1.166991 v 2.394046 h -0.763692 v -6.281153 z m -0.09439,3.217804 q 0.720788,0 1.106924,-0.351813 0.386136,-0.360394 0.386136,-0.918147 0,-0.557753 -0.386136,-0.918147 -0.386136,-0.360394 -1.106924,-0.360394 h -1.072602 v 2.548501 z m 2.634299,0.832338 q 0,-0.669303 0.291747,-1.201313 0.300329,-0.53201 0.789435,-0.823758 0.489106,-0.300328 1.055439,-0.300328 0.566334,0 1.05544,0.291747 0.489106,0.291748 0.780853,0.823758 0.291748,0.53201 0.291748,1.209894 0,0.677884 -0.291748,1.209895 -0.291747,0.523429 -0.780853,0.823757 -0.489106,0.291748 -1.05544,0.291748 -0.566333,0 -1.06402,-0.291748 -0.489106,-0.300328 -0.780854,-0.823757 -0.291747,-0.532011 -0.291747,-1.209895 z m 0.772273,0 q 0,0.506268 0.180197,0.875243 0.180197,0.368975 0.489106,0.566333 0.308909,0.197359 0.695045,0.197359 0.386137,0 0.695046,-0.197359 0.308909,-0.197358 0.480525,-0.566333 0.180197,-0.368975 0.180197,-0.875243 0,-0.506267 -0.180197,-0.875242 -0.171616,-0.368975 -0.480525,-0.566334 -0.308909,-0.197358 -0.695046,-0.197358 -0.386136,0 -0.695045,0.197358 -0.308909,0.197359 -0.489106,0.566334 -0.180197,0.368975 -0.180197,0.875242 z m 7.405233,-2.222429 1.16699,3.346515 1.089763,-3.346515 h 0.686465 l -1.578869,4.45344 h -0.480525 l -1.184152,-3.260708 -1.132667,3.260708 h -0.497687 l -1.638935,-4.45344 h 0.763692 l 1.166991,3.346515 1.072601,-3.346515 z m 5.397323,-0.10297 q 0.574914,0 1.003955,0.274586 0.437621,0.266005 0.669303,0.729369 0.231682,0.463363 0.231682,1.029697 0,0.240263 -0.03432,0.437621 h -3.209222 q 0.0429,0.763692 0.437621,1.141248 0.394717,0.368975 0.995374,0.368975 0.74653,0 1.081182,-0.600657 l 0.557752,0.31749 q -0.171616,0.454783 -0.64356,0.703626 -0.463364,0.248844 -1.038278,0.248844 -0.600657,0 -1.098344,-0.274586 -0.489106,-0.274586 -0.780853,-0.798015 -0.283167,-0.532011 -0.283167,-1.26996 0,-0.712207 0.283167,-1.235637 0.291747,-0.523429 0.772272,-0.798015 0.480526,-0.274586 1.05544,-0.274586 z m -0.02574,0.669303 q -0.480526,0 -0.84092,0.308909 -0.351813,0.308909 -0.446202,0.900985 h 2.428369 q -0.02574,-0.574914 -0.334651,-0.892404 -0.30891,-0.31749 -0.806596,-0.31749 z m 4.736614,-0.669303 q 0.205939,0 0.377556,0.06007 0.180197,0.05148 0.291747,0.137293 l -0.266005,0.592075 q -0.171616,-0.102969 -0.411879,-0.102969 -0.497687,0 -0.815177,0.411879 -0.31749,0.403298 -0.31749,1.184151 v 2.273915 h -0.729369 v -4.45344 h 0.643561 q 0.01716,0.42904 0.05148,0.729368 0.377556,-0.832338 1.175571,-0.832338 z m 2.917483,0 q 0.574914,0 1.003955,0.274586 0.437621,0.266005 0.669303,0.729369 0.231682,0.463363 0.231682,1.029697 0,0.240263 -0.03432,0.437621 h -3.209222 q 0.0429,0.763692 0.437621,1.141248 0.394717,0.368975 0.995374,0.368975 0.74653,0 1.081182,-0.600657 l 0.557753,0.31749 q -0.171617,0.454783 -0.643561,0.703626 -0.463364,0.248844 -1.038278,0.248844 -0.600657,0 -1.098344,-0.274586 -0.489106,-0.274586 -0.780853,-0.798015 -0.283167,-0.532011 -0.283167,-1.26996 0,-0.712207 0.283167,-1.235637 0.291747,-0.523429 0.772272,-0.798015 0.480526,-0.274586 1.05544,-0.274586 z m -0.02574,0.669303 q -0.480526,0 -0.84092,0.308909 -0.351813,0.308909 -0.446202,0.900985 h 2.428369 q -0.02574,-0.574914 -0.334651,-0.892404 -0.308909,-0.31749 -0.806596,-0.31749 z m 6.023735,-2.642889 h 0.729369 v 6.529996 h -0.643561 q -0.01716,-0.446202 -0.05148,-0.755111 -0.240263,0.42904 -0.643561,0.64356 -0.394717,0.20594 -0.840919,0.20594 -0.514849,0 -0.969632,-0.274586 -0.446202,-0.274586 -0.720788,-0.798015 -0.274586,-0.532011 -0.274586,-1.252799 0,-0.712207 0.274586,-1.235636 0.274586,-0.53201 0.720788,-0.806596 0.454783,-0.283167 0.969632,-0.283167 0.42904,0 0.815176,0.197359 0.386137,0.197358 0.63498,0.592075 z m -1.364348,5.93792 q 0.557752,0 0.96105,-0.394717 0.403298,-0.394717 0.403298,-1.244218 0,-0.840919 -0.403298,-1.235636 -0.403298,-0.394717 -0.96105,-0.394717 -0.583495,0 -0.935309,0.42904 -0.351813,0.429041 -0.351813,1.201313 0,0.780854 0.351813,1.209895 0.351814,0.42904 0.935309,0.42904 z m 7.920094,-3.964334 q 0.506268,0 0.95247,0.283167 0.454783,0.274586 0.729369,0.806596 0.274586,0.523429 0.274586,1.235636 0,0.720788 -0.274586,1.252799 -0.274586,0.523429 -0.729369,0.798015 -0.446202,0.274586 -0.95247,0.274586 -0.446202,0 -0.8495,-0.21452 -0.403298,-0.214521 -0.643561,-0.643561 -0.03432,0.368975 -0.05148,0.763692 h -0.64356 v -6.529996 h 0.729369 v 2.771601 q 0.248843,-0.394717 0.634979,-0.592076 0.386137,-0.205939 0.823758,-0.205939 z m -0.09439,3.964334 q 0.583495,0 0.935309,-0.42904 0.351813,-0.429041 0.351813,-1.209895 0,-0.772272 -0.351813,-1.201313 -0.351814,-0.42904 -0.935309,-0.42904 -0.557752,0 -0.96105,0.394717 -0.403298,0.394717 -0.403298,1.235636 0,0.574915 0.197358,0.943889 0.197359,0.368975 0.506268,0.532011 0.308909,0.163035 0.660722,0.163035 z m 5.929341,-3.861364 h 0.755112 l -2.085137,5.260036 q -0.274586,0.695046 -0.583495,0.986793 -0.308909,0.300328 -0.866662,0.300328 -0.523429,0 -0.832339,-0.266005 l 0.291748,-0.592076 q 0.09439,0.07723 0.240263,0.120132 0.154454,0.05148 0.300328,0.05148 0.266005,0 0.446202,-0.180197 0.188778,-0.180197 0.403298,-0.677884 l 0.21452,-0.497687 -1.853454,-4.504925 h 0.840919 l 1.398672,3.578197 z m 8.469267,-0.10297 q 0.634979,0 1.029697,0.463364 0.394717,0.454783 0.394717,1.312864 v 2.780182 h -0.720788 v -2.53992 q 0,-0.64356 -0.223101,-0.978212 -0.223101,-0.343232 -0.660722,-0.343232 -0.446203,0 -0.763693,0.343232 -0.308909,0.343232 -0.308909,0.986793 v 2.531339 h -0.720788 v -2.53992 q 0,-0.63498 -0.223101,-0.978212 -0.223101,-0.343232 -0.652141,-0.343232 -0.446202,0 -0.763692,0.351813 -0.308909,0.343232 -0.308909,0.978212 v 2.531339 h -0.729369 v -4.45344 h 0.64356 q 0.0086,0.291747 0.0429,0.677884 0.223101,-0.386137 0.557752,-0.583495 0.343233,-0.197359 0.746531,-0.197359 0.446202,0 0.780853,0.240263 0.343233,0.231681 0.497687,0.695045 0.21452,-0.471944 0.574914,-0.703626 0.368975,-0.231682 0.806597,-0.231682 z m 4.393373,0 q 0.755111,0 1.235637,0.463364 0.480525,0.454783 0.480525,1.304283 v 2.788763 h -0.643561 q -0.02574,-0.437621 -0.03432,-0.566334 -0.205939,0.326071 -0.557752,0.497687 -0.343233,0.163036 -0.789435,0.163036 -0.42904,0 -0.806596,-0.154455 -0.368975,-0.163035 -0.592076,-0.471944 -0.223101,-0.31749 -0.223101,-0.755112 0,-0.660722 0.53201,-1.038278 0.540591,-0.386136 1.390091,-0.386136 0.480526,0 0.995374,0.128712 v -0.07723 q 0,-0.626399 -0.257424,-0.926728 -0.248843,-0.308909 -0.763692,-0.308909 -0.411879,0 -0.686465,0.171616 -0.274586,0.171617 -0.463364,0.506268 l -0.557752,-0.31749 q 0.205939,-0.463363 0.669303,-0.737949 0.471945,-0.283167 1.072601,-0.283167 z m 0.986793,2.582824 q -0.540591,-0.137293 -0.986793,-0.137293 -0.557752,0 -0.866662,0.21452 -0.300328,0.21452 -0.300328,0.600657 0,0.360394 0.257424,0.566333 0.257425,0.197359 0.669304,0.197359 0.506267,0 0.866661,-0.291748 0.360394,-0.300328 0.360394,-0.823758 z m 3.990072,-0.63498 1.84487,2.608566 h -0.91814 l -1.433,-2.042233 -0.772268,0.858081 v 1.184152 h -0.729369 v -6.529996 h 0.729369 v 4.410536 l 2.042228,-2.33398 h 0.89241 z m 4.14454,-1.947844 q 0.57492,0 1.00396,0.274586 0.43762,0.266005 0.6693,0.729369 0.23168,0.463363 0.23168,1.029697 0,0.240263 -0.0343,0.437621 h -3.20922 q 0.0429,0.763692 0.43762,1.141248 0.39471,0.368975 0.99537,0.368975 0.74653,0 1.08118,-0.600657 l 0.55776,0.31749 q -0.17162,0.454783 -0.64357,0.703626 -0.46336,0.248844 -1.03827,0.248844 -0.60066,0 -1.09835,-0.274586 -0.4891,-0.274586 -0.78085,-0.798015 -0.28317,-0.532011 -0.28317,-1.26996 0,-0.712207 0.28317,-1.235637 0.29175,-0.523429 0.77227,-0.798015 0.48053,-0.274586 1.05544,-0.274586 z m -0.0257,0.669303 q -0.48053,0 -0.84092,0.308909 -0.35181,0.308909 -0.4462,0.900985 h 2.42837 q -0.0258,-0.574914 -0.33465,-0.892404 -0.30891,-0.31749 -0.8066,-0.31749 z m 4.73661,3.295031 q 0.65215,0 1.02112,-0.583495 l 0.57491,0.334652 q -0.24026,0.471944 -0.65214,0.703626 -0.4033,0.231682 -0.92672,0.231682 -0.60066,0 -1.08977,-0.291748 -0.4891,-0.291747 -0.77227,-0.815177 -0.28317,-0.53201 -0.28317,-1.218475 0,-0.686464 0.28317,-1.209894 0.28317,-0.53201 0.77227,-0.823758 0.48911,-0.291747 1.08977,-0.291747 0.52342,0 0.92672,0.231682 0.41188,0.231682 0.65214,0.703626 l -0.57491,0.334652 q -0.36897,-0.583495 -1.02112,-0.583495 -0.60065,0 -0.97821,0.437621 -0.37755,0.437621 -0.37755,1.201313 0,0.763692 0.37755,1.201314 0.37756,0.437621 0.97821,0.437621 z m 4.18745,0 q 0.65214,0 1.02112,-0.583495 l 0.57491,0.334652 q -0.24026,0.471944 -0.65214,0.703626 -0.4033,0.231682 -0.92673,0.231682 -0.60065,0 -1.08976,-0.291748 -0.48911,-0.291747 -0.77227,-0.815177 -0.28317,-0.53201 -0.28317,-1.218475 0,-0.686464 0.28317,-1.209894 0.28316,-0.53201 0.77227,-0.823758 0.48911,-0.291747 1.08976,-0.291747 0.52343,0 0.92673,0.231682 0.41188,0.231682 0.65214,0.703626 l -0.57491,0.334652 q -0.36898,-0.583495 -1.02112,-0.583495 -0.60066,0 -0.97821,0.437621 -0.37756,0.437621 -0.37756,1.201313 0,0.763692 0.37756,1.201314 0.37755,0.437621 0.97821,0.437621 z m 3.93001,-2.213849 1.17557,-1.647515 h 0.83234 l -1.6132,2.213849 1.6132,2.239591 h -0.89241 l -1.14983,-1.647516 -1.18415,1.647516 h -0.8495 l 1.63035,-2.205268 -1.63035,-2.248172 h 0.90957 z"
       id="text1"
       aria-label="Powered by makeccx" /><g
       id="text2"
       style="font-size:13.6763px;font-family:'Maple Mono';-inkscape-font-specification:'Maple Mono';fill:#ffffff;stroke-width:0.113969"
       aria-label="ClipCC&#10;Extension"><path
         style="font-size:11.3188px;font-family:'HarmonyOS Sans';-inkscape-font-specification:'HarmonyOS Sans'"
         d="m 62.325398,45.944465 q 1.358256,0 1.992109,-1.256386 l 0.814954,0.475389 q -0.350883,0.803635 -1.086605,1.256387 -0.735722,0.452752 -1.69782,0.452752 -1.052648,0 -1.912877,-0.543302 -0.860229,-0.543303 -1.358256,-1.51672 -0.498027,-0.973416 -0.498027,-2.218484 0,-1.245068 0.498027,-2.218485 0.498027,-0.973417 1.358256,-1.505401 0.860229,-0.543302 1.912877,-0.543302 0.962098,0 1.69782,0.452752 0.735722,0.452752 1.086605,1.256387 l -0.814954,0.475389 q -0.633853,-1.256386 -1.992109,-1.256386 -0.792316,0 -1.403531,0.418795 -0.611215,0.418796 -0.950779,1.177155 -0.328245,0.75836 -0.328245,1.743096 0,0.984735 0.328245,1.754414 0.339564,0.758359 0.950779,1.177155 0.611215,0.418795 1.403531,0.418795 z m 4.889733,0.803635 h -0.962098 v -8.613606 h 0.962098 z m 2.229807,-6.927105 q -0.260332,0 -0.452752,-0.19242 -0.1811,-0.203738 -0.1811,-0.464071 0,-0.260332 0.1811,-0.452752 0.19242,-0.203738 0.452752,-0.203738 0.271652,0 0.452752,0.19242 0.19242,0.192419 0.19242,0.46407 0,0.260333 -0.19242,0.464071 -0.192419,0.19242 -0.452752,0.19242 z m 0.47539,6.927105 H 68.95823 v -5.874457 h 0.962098 z m 4.652018,-6.010283 q 0.667809,0 1.256387,0.373521 0.599896,0.362201 0.962098,1.063967 0.362202,0.690447 0.362202,1.629907 0,0.950779 -0.362202,1.652545 -0.362202,0.690447 -0.962098,1.052648 -0.588578,0.362202 -1.256387,0.362202 -0.56594,0 -1.086605,-0.260332 -0.509346,-0.271652 -0.837591,-0.792316 v 3.554103 h -0.962098 v -8.500419 h 0.84891 q 0.02264,0.56594 0.06791,0.996054 0.316926,-0.56594 0.837591,-0.84891 0.531984,-0.28297 1.13188,-0.28297 z m -0.124507,5.229286 q 0.769679,0 1.23375,-0.56594 0.46407,-0.56594 0.46407,-1.595951 0,-1.030011 -0.46407,-1.595951 -0.464071,-0.56594 -1.23375,-0.56594 -0.46407,0 -0.871547,0.215058 -0.407477,0.215057 -0.667809,0.701765 -0.260333,0.486709 -0.260333,1.245068 0,0.75836 0.260333,1.245068 0.260332,0.486709 0.667809,0.701766 0.407477,0.215057 0.871547,0.215057 z m 7.549644,-0.02264 q 1.358256,0 1.992109,-1.256386 l 0.814954,0.475389 q -0.350883,0.803635 -1.086605,1.256387 -0.735722,0.452752 -1.69782,0.452752 -1.052649,0 -1.912877,-0.543302 -0.860229,-0.543303 -1.358256,-1.51672 -0.498028,-0.973416 -0.498028,-2.218484 0,-1.245068 0.498028,-2.218485 0.498027,-0.973417 1.358256,-1.505401 0.860228,-0.543302 1.912877,-0.543302 0.962098,0 1.69782,0.452752 0.735722,0.452752 1.086605,1.256387 l -0.814954,0.475389 q -0.633853,-1.256386 -1.992109,-1.256386 -0.792316,0 -1.403531,0.418795 -0.611215,0.418796 -0.950779,1.177155 -0.328245,0.75836 -0.328245,1.743096 0,0.984735 0.328245,1.754414 0.339564,0.758359 0.950779,1.177155 0.611215,0.418795 1.403531,0.418795 z m 7.210087,0 q 1.358256,0 1.992109,-1.256386 l 0.814953,0.475389 q -0.350882,0.803635 -1.086604,1.256387 -0.735722,0.452752 -1.69782,0.452752 -1.052649,0 -1.912878,-0.543302 -0.860228,-0.543303 -1.358256,-1.51672 -0.498027,-0.973416 -0.498027,-2.218484 0,-1.245068 0.498027,-2.218485 0.498028,-0.973417 1.358256,-1.505401 0.860229,-0.543302 1.912878,-0.543302 0.962098,0 1.69782,0.452752 0.735722,0.452752 1.086604,1.256387 l -0.814953,0.475389 q -0.633853,-1.256386 -1.992109,-1.256386 -0.792316,0 -1.403531,0.418795 -0.611215,0.418796 -0.950779,1.177155 -0.328246,0.75836 -0.328246,1.743096 0,0.984735 0.328246,1.754414 0.339564,0.758359 0.950779,1.177155 0.611215,0.418795 1.403531,0.418795 z"
         id="path2" /><path
         style="font-size:16.978px;font-family:'HarmonyOS Sans';-inkscape-font-specification:'HarmonyOS Sans'"
         d="m 66.46798,57.432797 h -5.466916 v 4.41428 h 6.298838 v 1.341262 h -7.80988 V 50.743465 h 7.623122 v 1.341262 h -6.11208 v 4.006808 h 5.466916 z m 5.806497,0.203736 2.325987,-3.259776 h 1.646866 l -3.191865,4.380324 3.191865,4.431258 h -1.765712 l -2.275053,-3.259776 -2.342964,3.259776 h -1.680822 l 3.22582,-4.363346 -3.22582,-4.448236 h 1.799668 z m 10.458429,5.26318 q -0.696098,0.475384 -1.78269,0.475384 -2.665546,0 -2.665546,-3.039062 v -4.719884 h -1.460108 v -1.256372 h 1.460108 v -2.46181 h 1.44313 v 2.46181 h 2.563678 v 1.256372 H 79.7278 v 4.550104 q 0,1.850602 1.392196,1.850602 0.611208,0 1.137526,-0.305604 z m 5.008511,-8.726692 q 1.137526,0 1.986426,0.543296 0.865878,0.526318 1.324284,1.44313 0.458406,0.916812 0.458406,2.03736 0,0.475384 -0.06791,0.865878 h -6.349772 q 0.08489,1.511042 0.865878,2.258074 0.780988,0.730054 1.969448,0.730054 1.477086,0 2.139228,-1.18846 l 1.10357,0.628186 q -0.33956,0.899834 -1.27335,1.392196 -0.916812,0.492362 -2.054338,0.492362 -1.18846,0 -2.173184,-0.543296 -0.967746,-0.543296 -1.544998,-1.578954 -0.560274,-1.052636 -0.560274,-2.512744 0,-1.409174 0.560274,-2.444832 0.577252,-1.035658 1.52802,-1.578954 0.950768,-0.543296 2.088294,-0.543296 z m -0.05093,1.324284 q -0.950768,0 -1.663844,0.611208 -0.696098,0.611208 -0.882856,1.78269 h 4.804774 q -0.05093,-1.137526 -0.662142,-1.765712 -0.611208,-0.628186 -1.595932,-0.628186 z m 9.932146,-1.324284 q 1.409174,0 2.258074,0.93379 0.848893,0.93379 0.848893,2.648568 v 5.43296 h -1.443123 v -5.025488 q 0,-1.256372 -0.50934,-1.935492 -0.492362,-0.67912 -1.477086,-0.67912 -0.645164,0 -1.222416,0.305604 -0.560274,0.288626 -0.916812,0.882856 -0.356538,0.577252 -0.356538,1.44313 v 5.00851 h -1.44313 v -8.811582 h 1.27335 q 0.03396,0.8489 0.101868,1.460108 0.441428,-0.814944 1.18846,-1.239394 0.76401,-0.42445 1.6978,-0.42445 z m 11.528057,6.502574 q 0,0.797966 -0.42445,1.409174 -0.40747,0.611208 -1.1545,0.950768 -0.74703,0.33956 -1.71478,0.33956 -1.29033,0 -2.22412,-0.577252 -0.93379,-0.577252 -1.22242,-1.578954 l 1.10357,-0.628186 q 0.62819,1.477086 2.34297,1.477086 0.83192,0 1.30731,-0.33956 0.47538,-0.33956 0.47538,-0.93379 0,-0.458406 -0.28863,-0.747032 -0.27164,-0.288626 -0.69609,-0.441428 -0.40748,-0.16978 -1.15451,-0.390494 -0.89983,-0.25467 -1.46011,-0.492362 -0.56027,-0.237692 -0.95077,-0.696098 -0.39049,-0.475384 -0.39049,-1.239394 0,-0.797966 0.42445,-1.392196 0.44143,-0.59423 1.17148,-0.899834 0.74704,-0.322582 1.62989,-0.322582 1.15451,0 1.98643,0.50934 0.83192,0.50934 1.12055,1.392196 l -1.10357,0.628186 q -0.27165,-0.577252 -0.81495,-0.882856 -0.52632,-0.322582 -1.25637,-0.322582 -0.74703,0 -1.20544,0.305604 -0.44143,0.288626 -0.44143,0.8489 0,0.407472 0.25467,0.662142 0.27165,0.25467 0.66215,0.407472 0.39049,0.152802 1.10357,0.356538 0.93379,0.25467 1.51104,0.50934 0.57725,0.237692 0.98472,0.747032 0.42445,0.50934 0.42445,1.341262 z m 2.51274,-7.877792 q -0.39049,0 -0.67912,-0.288626 -0.27165,-0.305604 -0.27165,-0.696098 0,-0.390494 0.27165,-0.67912 0.28863,-0.305604 0.67912,-0.305604 0.40747,0 0.67912,0.288626 0.28863,0.288626 0.28863,0.696098 0,0.390494 -0.28863,0.696098 -0.28862,0.288626 -0.67912,0.288626 z m 0.71308,10.390536 h -1.44313 v -8.811582 h 1.44313 z m 2.13921,-4.41428 q 0,-1.324284 0.57726,-2.37692 0.59423,-1.052636 1.56197,-1.629888 0.96775,-0.59423 2.0883,-0.59423 1.12054,0 2.08829,0.577252 0.96775,0.577252 1.545,1.629888 0.57725,1.052636 0.57725,2.393898 0,1.341262 -0.57725,2.393898 -0.57725,1.035658 -1.545,1.629888 -0.96775,0.577252 -2.08829,0.577252 -1.12055,0 -2.10528,-0.577252 -0.96774,-0.59423 -1.54499,-1.629888 -0.57726,-1.052636 -0.57726,-2.393898 z m 1.52802,0 q 0,1.001702 0.35654,1.731756 0.35654,0.730054 0.96775,1.120548 0.61121,0.390494 1.37522,0.390494 0.76401,0 1.37521,-0.390494 0.61121,-0.390494 0.95077,-1.120548 0.35654,-0.730054 0.35654,-1.731756 0,-1.001702 -0.35654,-1.731756 -0.33956,-0.730054 -0.95077,-1.120548 -0.6112,-0.390494 -1.37521,-0.390494 -0.76401,0 -1.37522,0.390494 -0.61121,0.390494 -0.96775,1.120548 -0.35654,0.730054 -0.35654,1.731756 z m 13.2768,-4.601038 q 1.40917,0 2.25807,0.93379 0.8489,0.93379 0.8489,2.648568 v 5.43296 h -1.44313 v -5.025488 q 0,-1.256372 -0.50934,-1.935492 -0.49236,-0.67912 -1.47709,-0.67912 -0.64516,0 -1.22241,0.305604 -0.56028,0.288626 -0.91681,0.882856 -0.35654,0.577252 -0.35654,1.44313 v 5.00851 h -1.44313 v -8.811582 h 1.27335 q 0.034,0.8489 0.10187,1.460108 0.44142,-0.814944 1.18846,-1.239394 0.76401,-0.42445 1.6978,-0.42445 z"
         id="path3" /></g></g></svg>
