<?xml version="1.0" encoding="UTF-8" standalone="no"?>
<!-- Created with Inkscape (http://www.inkscape.org/) -->

<svg
   width="600"
   height="372"
   viewBox="0 0 158.75 98.424999"
   version="1.1"
   id="svg1"
   xml:space="preserve"
   inkscape:version="1.4 (86a8ad7, 2024-10-11)"
   sodipodi:docname="cover.svg"
   inkscape:export-filename="cover.jpg"
   inkscape:export-xdpi="96"
   inkscape:export-ydpi="96"
   xmlns:inkscape="http://www.inkscape.org/namespaces/inkscape"
   xmlns:sodipodi="http://sodipodi.sourceforge.net/DTD/sodipodi-0.dtd"
   xmlns="http://www.w3.org/2000/svg"
   xmlns:svg="http://www.w3.org/2000/svg"><sodipodi:namedview
     id="namedview1"
     pagecolor="#ffffff"
     bordercolor="#000000"
     borderopacity="0.25"
     inkscape:showpageshadow="2"
     inkscape:pageopacity="0.0"
     inkscape:pagecheckerboard="0"
     inkscape:deskcolor="#d1d1d1"
     inkscape:document-units="mm"
     showguides="true"
     inkscape:zoom="1.6311518"
     inkscape:cx="342.39609"
     inkscape:cy="339.94384"
     inkscape:window-width="3840"
     inkscape:window-height="2066"
     inkscape:window-x="-11"
     inkscape:window-y="-11"
     inkscape:window-maximized="1"
     inkscape:current-layer="svg1" /><defs
     id="defs1"><style
       id="style1">.cls-1{fill:#fff;}</style></defs><rect
     style="fill:#333333;stroke-width:0.834508;fill-opacity:1"
     id="rect1"
     width="158.75"
     height="98.425003"
     x="-1.0658141e-14"
     y="-1.5258789e-06" /><g
     inkscape:label="图层 1"
     inkscape:groupmode="layer"
     id="layer1"><path
       class="cls-1"
       d="m 35.237021,63.639231 h -6.512946 a 2.4898542,2.4898542 0 0 1 -2.401586,-2.401587 v -6.512798 a 4.4215813,4.4215813 0 0 0 2.619762,-1.23711 3.51721,3.51721 0 0 0 0,-5.093929 4.4217267,4.4217267 0 0 0 -2.619762,-1.237107 v -6.512947 a 2.4898542,2.4898542 0 0 1 2.401586,-2.401586 h 6.258262 a 5.5585097,5.5585097 0 0 1 1.54636,-2.474214 3.8401169,3.8401169 0 0 1 5.130341,0 5.5585097,5.5585097 0 0 1 1.546357,2.474214 h 6.11286 a 2.4898542,2.4898542 0 0 1 2.401584,2.401586 v 6.112714 a 4.9624225,4.9624225 0 0 1 2.419605,1.619135 4.0732062,4.0732062 0 0 1 0.927553,2.638065 3.5909522,3.5909522 0 0 1 -0.927846,2.510576 5.4012931,5.4012931 0 0 1 -2.419592,1.491794 v 6.22185 a 2.4898542,2.4898542 0 0 1 -2.401595,2.401586 h -6.512799 a 4.3124449,4.3124449 0 0 0 -1.255314,-2.747105 3.6017496,3.6017496 0 0 0 -5.057516,0 4.3124449,4.3124449 0 0 0 -1.255314,2.746863 z M 28.79685,61.165017 h 4.657333 a 5.6848835,5.6848835 0 0 1 2.510578,-2.983585 6.6072668,6.6072668 0 0 1 3.056356,-0.836874 6.6072668,6.6072668 0 0 1 3.056355,0.836874 5.6851257,5.6851257 0 0 1 2.510581,2.983585 h 4.657281 v -8.477744 h 1.673764 a 1.6740896,1.6740896 0 1 0 0,-3.347453 H 49.245334 V 40.716381 H 40.767447 V 38.93364 a 1.6740896,1.6740896 0 1 0 -3.347452,0 v 1.782886 h -8.623437 v 4.657335 a 6.023914,6.023914 0 0 1 2.692487,8.91434 5.8635499,5.8635499 0 0 1 -2.692487,2.21953 z"
       id="path1"
       style="stroke-width:0.48419" /><text
       xml:space="preserve"
       style="font-size:8.58081px;font-family:'Maple Mono';-inkscape-font-specification:'Maple Mono';text-align:center;writing-mode:lr-tb;direction:ltr;text-anchor:middle;fill:#ffffff;fill-opacity:1;stroke-width:0.071506"
       x="79.048927"
       y="17.235222"
       id="text1"><tspan
         sodipodi:role="line"
         id="tspan1"
         style="font-style:normal;font-variant:normal;font-weight:normal;font-stretch:normal;font-family:'HarmonyOS Sans';-inkscape-font-specification:'HarmonyOS Sans';fill:#ffffff;fill-opacity:1;stroke-width:0.071506"
         x="79.048927"
         y="17.235222">Powered by makeccx</tspan></text><text
       xml:space="preserve"
       style="font-size:13.6763px;font-family:'Maple Mono';-inkscape-font-specification:'Maple Mono';text-align:start;writing-mode:lr-tb;direction:ltr;text-anchor:start;fill:#ffffff;fill-opacity:1;stroke-width:0.113969"
       x="58.012936"
       y="42.737549"
       id="text2"><tspan
         sodipodi:role="line"
         id="tspan2"
         style="font-style:normal;font-variant:normal;font-weight:normal;font-stretch:normal;font-size:11.3188px;font-family:'HarmonyOS Sans';-inkscape-font-specification:'HarmonyOS Sans';text-align:start;text-anchor:start;stroke-width:0.113969"
         x="58.012936"
         y="42.737549"
         dy="4.0105515">ClipCC</tspan><tspan
         sodipodi:role="line"
         style="font-style:normal;font-variant:normal;font-weight:normal;font-stretch:normal;font-size:16.978px;font-family:'HarmonyOS Sans';-inkscape-font-specification:'HarmonyOS Sans';text-align:start;text-anchor:start;stroke-width:0.113969"
         x="58.012936"
         y="63.188339"
         id="tspan3">Extension</tspan></text></g></svg>
